<?xml version="1.0" encoding="utf-8"?>
<!-- Generator: Adobe Illustrator 21.0.0, SVG Export Plug-In . SVG Version: 6.00 Build 0)  -->
<svg version="1.1" id="behance" xmlns="http://www.w3.org/2000/svg" xmlns:xlink="http://www.w3.org/1999/xlink" x="0px" y="0px"
	 viewBox="0 0 320.7 320.7" style="enable-background:new 0 0 320.7 320.7;" xml:space="preserve">
<style type="text/css">
	.st0{fill:#FFFFFF;}
</style>
<g>
	<path class="st0" d="M320.7,282.8c0,20.9-16.9,37.8-37.8,37.8h-245C16.9,320.7,0,303.7,0,282.8v-245C0,16.9,16.9,0,37.8,0h245
		c20.9,0,37.8,16.9,37.8,37.8V282.8z"/>
	<g>
		<path d="M130.9,150.7c0,0,27.2-2,27.2-33.9c0-31.9-22.3-47.5-50.5-47.5H55.7h-1.5H14.8v178.4h39.4h1.5h51.9
			c0,0,56.7,1.8,56.7-52.7C164.3,195,166.7,150.7,130.9,150.7z M55.7,101h45.2h6.7c0,0,12.6,0,12.6,18.6s-7.4,21.2-15.8,21.2H55.7
			V101z M105.2,215.9H55.7v-47.7h51.9c0,0,18.8-0.2,18.8,24.5C126.4,213.4,112.7,215.7,105.2,215.9z"/>
		<g>
			<path d="M239.8,114.6c-68.6,0-68.5,68.5-68.5,68.5s-4.7,68.2,68.5,68.2c0,0,61,3.5,61-47.4h-31.4c0,0,1,19.2-28.6,19.2
				c0,0-31.4,2.1-31.4-31h92.4C301.9,192.1,312,114.6,239.8,114.6z M267.7,168.3h-58.6c0,0,3.8-27.5,31.4-27.5
				C268.1,140.8,267.7,168.3,267.7,168.3z"/>
			<rect x="201.5" y="79.8" width="73.6" height="22"/>
		</g>
	</g>
</g>
</svg>
