<?xml version="1.0" encoding="utf-8"?>
<!-- Generator: Adobe Illustrator 20.1.0, SVG Export Plug-In . SVG Version: 6.00 Build 0)  -->
<svg version="1.1" id="Layer_1" xmlns="http://www.w3.org/2000/svg" xmlns:xlink="http://www.w3.org/1999/xlink" x="0px" y="0px"
	 viewBox="0 0 1145.1 1145.1" style="enable-background:new 0 0 1145.1 1145.1;" xml:space="preserve">
<style type="text/css">
	.st0{fill:#F05857;}
	.st1{fill:#D8D0AD;}
	.st2{fill:#BB5348;}
	.st3{fill:#0D232C;}
	.st4{fill:#FFFFFF;}
</style>
<circle class="st0" cx="572.5" cy="572.5" r="572.5"/>
<g id="Layer_2">
	<path class="st1" d="M570.7,377.8C445.9,377.8,258.5,516,258.5,516c33.7,38.6,81.9,343.7,81.9,343.7
		c73.9-40.2,230.2-35.3,230.2-35.3s156.3-4.8,230.2,35.3c0,0,48.2-305.2,81.9-343.7C882.8,516,695.4,377.8,570.7,377.8z"/>
	<path class="st2" d="M578.7,392.3c0,0-206.7,251.1,10.2,417.1c0,0-172.9,1.6-237.7,30.5c0,0-61-278.4-74.4-319.7
		C277.2,520.3,452.9,387.5,578.7,392.3z"/>
	<g>
		<path class="st3" d="M801.4,525.6c0,0-101.2-91-223.8-103.3h-17.1c-122.6,12.3-223.8,103.3-223.8,103.3
			C273,667,403.1,732.8,403.1,732.8c28.9-38,126.4-56.2,166.5-56.2c40.7,0,137.6,18.2,166.5,56.2C735.6,732.8,865.7,667,801.4,525.6
			z"/>
		<path class="st3" d="M404.1,738.7l-3.7-1.6c-1.6-0.5-133.3-69.6-68-213.1l0.5-1.1l0.5-0.5c1.1-1.1,103.9-92.1,226.5-104.4h17.7
			c123.1,12.3,226,103.3,227,104.4l0.5,0.5l0.5,1.1c65.3,144-66.9,212.6-68,213.1l-3.7,1.6l-2.7-3.2
			c-27.3-35.9-120.5-54.1-162.8-54.1c-41.2,0-135.5,19.3-162.8,54.1L404.1,738.7z M569,671.8c35.9,0,133.3,16.1,167.6,54.6
			c19.8-11.2,116.2-74.4,60.5-198.1c-9.6-8-106-90-220.1-101.2h-16.6C447,438.4,350.1,520.3,341,528.3
			c-55.7,123.7,40.7,186.3,60.5,198.1C435.7,687.3,533.2,671.8,569,671.8z"/>
	</g>
	
		<rect x="421" y="689.4" transform="matrix(0.9475 -0.3197 0.3197 0.9475 -219.8925 177.4689)" class="st3" width="19.3" height="138.1"/>
	
		<rect x="635.5" y="760.7" transform="matrix(0.3198 -0.9475 0.9475 0.3198 -250.6191 1191.5168)" class="st3" width="138.1" height="19.3"/>
	<path class="st4" d="M506.9,433c0,0,107.6,66.9,100.7,113.5c-7,46.6,39.1,42.3,39.1,56.2c0,0,40.2-32.7,53-17.7
		c12.9,15-43.9,104.9-43.9,104.9l48.7,18.7c0,0,73.9-130.1,59.4-154.2l-59.4-11.2c0,0,14.5-68-7.5-85.1
		C697,457.6,604.4,403.5,506.9,433z"/>
	<circle class="st4" cx="415.9" cy="609.2" r="31.6"/>
	<polygon class="st2" points="276.7,577.6 216.7,634.9 246.7,770.3 322.7,778.4 	"/>
	<path class="st3" d="M239.8,605.4c0,0-6.4-14.5-17.1-36.4c-10.2-22-24.6-50.9-39.1-79.8c-7.5-14.5-15-28.9-22.5-41.8
		c-3.7-6.4-7.5-12.9-10.7-19.3c-3.7-5.9-7-11.8-10.2-16.6c-3.2-5.4-5.9-9.6-9.1-13.9c-2.7-4.3-4.8-7.5-7-10.7
		c-4.3-5.9-6.4-9.1-6.4-9.1s2.7,3.2,7.5,8c2.7,2.7,5.4,5.9,8.6,9.6c3.2,3.7,7,8,10.2,12.9c3.7,4.8,8,10.2,11.8,15.5
		c4.3,5.4,8.6,11.8,12.9,17.7c9.1,12.3,18.2,25.7,26.8,39.6c18.2,27.3,35.3,54.6,48.2,75.5c12.9,20.9,21.4,34.8,21.4,34.8
		L239.8,605.4z"/>
	<circle class="st3" cx="127.3" cy="386.4" r="19.8"/>
	
		<rect x="256.3" y="607.2" transform="matrix(0.9762 -0.2168 0.2168 0.9762 -143.3149 73.0076)" class="st3" width="9.6" height="164.9"/>
	<g>
		<polygon class="st1" points="868.4,576.5 928.3,633.8 898.3,769.2 822.8,777.3 		"/>
		<path class="st3" d="M944.4,629l-67.5-64.3c4.3-20.3,14.5-60.5,14.5-60.5c-8-5.9-192.8-140.8-320.7-140.8S258,498.3,250.5,504.2
			c0,0,11.2,40.2,15.5,63.7L200.7,630l34.3,153.7l79.8,8.6c4.3,24.6,15,89.4,15,89.4l18.2-9.6c70.7-32.1,223.3-33.7,223.3-33.7
			s153.7-4.3,223.3,33.7l18.2,9.6l3.2-20.3c3.2-21.4,7.5-45.5,11.8-70.1l83.5-8.6L944.4,629z M258.5,756.9l-26.2-117.8l40.7-38.6
			l35.3,160.6L258.5,756.9z M789.6,838.3c-78.7-32.1-208.8-28.9-219-28.4c-10.2-0.5-140.3-3.2-219,28.4
			c-5.4-27.3-67.5-295.6-73.4-318.6c41.2-28.9,190.6-127.4,292.3-127.4S821.8,490.8,863,519.7C858.2,541.2,794.5,810.5,789.6,838.3z
			 M833.5,761.8l35.9-163.8l42.8,41.2L886,756.9L833.5,761.8z"/>
	</g>
	<path class="st3" d="M880.1,590.9c0,0,8.6-13.9,21.4-34.8c12.9-20.9,30-48.2,48.2-75.5c9.1-13.4,18.2-26.8,26.8-39.6
		c4.3-6.4,8.6-12.3,12.9-17.7c4.3-5.9,8-10.7,11.8-15.5s7-9.1,10.2-12.9c3.2-3.7,5.9-7,8.6-9.6c4.8-5.4,7.5-8,7.5-8
		s-2.1,3.2-6.4,9.1c-2.1,2.7-4.3,6.4-7,10.7c-2.7,4.3-5.9,8.6-9.1,13.9c-3.2,5.4-6.4,10.7-10.2,16.6s-7,12.3-10.7,19.3
		c-7.5,13.4-15,27.3-22.5,41.8c-15,28.9-28.9,57.8-39.1,79.8c-10.2,22-17.1,36.4-17.1,36.4L880.1,590.9z"/>
	<circle class="st3" cx="1017.7" cy="385.3" r="19.8"/>
	
		<rect x="801.5" y="683.6" transform="matrix(0.2168 -0.9762 0.9762 0.2168 20.2956 1402.0605)" class="st3" width="164.9" height="9.6"/>
	<path class="st3" d="M405.7,738.7l-3.7-1.6c-1.6-0.5-133.3-69.6-68-213.1l0.5-1.1l0.5-0.5c1.1-1.1,103.9-92.1,226.5-104.4h17.7
		c123.1,12.3,226,103.3,227,104.4l0.5,0.5l0.5,1.1c65.3,144-66.9,212.6-68,213.1l-3.7,1.6l-2.7-3.2
		c-27.3-35.9-120.5-54.1-162.8-54.1c-41.2,0-135.5,19.3-162.8,54.1L405.7,738.7z M570.7,671.8c35.9,0,133.3,16.1,167.6,54.6
		c19.8-11.2,116.2-74.4,60.5-198.1c-9.6-8-106-90-220.1-101.2h-16.6c-113.5,11.2-210.4,93.2-219.5,101.2
		c-55.7,123.7,40.7,186.3,60.5,198.1C437.3,687.3,534.8,671.8,570.7,671.8z"/>
</g>
</svg>
