<?xml version="1.0" encoding="utf-8"?>
<!-- Generator: Adobe Illustrator 21.0.0, SVG Export Plug-In . SVG Version: 6.00 Build 0)  -->
<svg version="1.1" id="Layer_1" xmlns="http://www.w3.org/2000/svg" xmlns:xlink="http://www.w3.org/1999/xlink" x="0px" y="0px"
	 viewBox="0 0 720 720" style="enable-background:new 0 0 720 720;" xml:space="preserve">
<style type="text/css">
	.st0{fill:#FFFFFF;}
</style>
<g>
	<g>
		<path class="st0" d="M720.7,562.3c0,87.1-70.3,157.7-157,157.7H156.3c-86.7,0-157-70.6-157-157.7V157.7C-0.7,70.6,69.6,0,156.3,0
			h407.4c86.7,0,157,70.6,157,157.7L720.7,562.3L720.7,562.3z"/>
	</g>
	<path d="M456.6,601.1h-195c-74.6,0-135.7-61.1-135.7-135.7V257.6c0-74.6,61.1-135.7,135.7-135.7h195c74.6,0,135.7,61.1,135.7,135.7
		v207.8C592.3,540.1,531.2,601.1,456.6,601.1z M456.6,565.3c26.5,0,51.5-10.4,70.5-29.4c19-19,29.4-44,29.4-70.5V257.6
		c0-26.5-10.4-51.5-29.4-70.5s-44-29.4-70.5-29.4h-195c-26.5,0-51.5,10.4-70.5,29.4s-29.4,44-29.4,70.5v207.8
		c0,26.5,10.4,51.5,29.4,70.5s44,29.4,70.5,29.4L456.6,565.3L456.6,565.3z"/>
	<path d="M488.2,359.7c0,70.9-57.5,128.4-128.4,128.4s-128.4-57.5-128.4-128.4s57.5-128.4,128.4-128.4S488.2,288.7,488.2,359.7z
		 M359.1,275.7c-46.4,0-84.1,37.7-84.1,84.1s37.7,84.1,84.1,84.1s84.1-37.7,84.1-84.1S405.6,275.7,359.1,275.7z"/>
	<circle class="st0" cx="490.3" cy="229.2" r="30.4"/>
</g>
</svg>
