<?xml version="1.0" encoding="utf-8"?>
<!-- Generator: Adobe Illustrator 20.1.0, SVG Export Plug-In . SVG Version: 6.00 Build 0)  -->
<svg version="1.1" id="medallion" xmlns="http://www.w3.org/2000/svg" xmlns:xlink="http://www.w3.org/1999/xlink" x="0px" y="0px"
	 viewBox="0 0 331.5 244.2" style="enable-background:new 0 0 331.5 244.2;" xml:space="preserve">
<style type="text/css">
	.st0{fill:#FF4338;}
	.st1{fill:#FFFFFF;}
</style>
<polygon class="st0" points="331.5,0 0,0 0,134.8 249.9,134.8 307.5,211.4 288.6,134.8 331.5,134.8 "/>
<polygon class="st0" points="0,144.1 243.2,144.1 243.2,211.4 59.8,211.4 19.6,244.2 31.5,211.4 0,211.4 "/>
<g>
	<path class="st1" d="M62,47.7v35.6h-5.3V55.5h-0.1l-5.5,27.8h-3l-5.5-27.8h-0.1v27.8h-5.3V47.7h8l4.3,20.8h0.1L54,47.7H62z"/>
	<path class="st1" d="M71.2,83.3h-5.9l6.6-35.6h7.6L86,83.3h-5.9L79,75.4h-6.7L71.2,83.3z M73.2,70.1h4.9l-2.4-15.3h-0.1L73.2,70.1z
		"/>
	<path class="st1" d="M91.3,53h-5.9v-5.3h18V53h-5.9v30.3h-6.1V53z"/>
	<path class="st1" d="M110.5,53h-5.9v-5.3h18V53h-5.9v30.3h-6.1V53z"/>
	<path class="st1" d="M136.8,83.3V47.7h6.1v13.2h0.1l6.4-13.2h6.1L149,61l7.5,22.4h-6.2l-5-16.6h-0.1l-2.2,3.9v12.6H136.8z"/>
	<path class="st1" d="M159,83.3V47.7h16.4V53h-10.3v9.2h7.9v5.3h-7.9V78h11v5.3H159z"/>
	<path class="st1" d="M205.5,47.7v35.6h-5.3V55.5h-0.1l-5.5,27.8h-3L186,55.5H186v27.8h-5.3V47.7h8l4.3,20.8h0.1l4.3-20.8H205.5z"/>
	<path class="st1" d="M211.1,47.7h9.1c6.6,0,9.5,3.4,9.5,9.4c0,3.1-1.3,6.3-4.2,7.5c3.1,1.4,4.9,3.9,4.9,8.4
		c0,5.9-2.6,10.3-9.6,10.3h-9.7V47.7z M217.2,62.3h2.2c2.3,0,4.1-1.6,4.1-4.5c0-3.3-1.3-5-4-5h-2.3V62.3z M217.2,78.3h2.6
		c3.3,0,4.4-1.9,4.4-5.5c0-3.7-1.4-5.5-5-5.5h-2V78.3z"/>
	<path class="st1" d="M239.4,83.3h-5.9l6.6-35.6h7.6l6.6,35.6h-5.9l-1.1-7.9h-6.7L239.4,83.3z M241.3,70.1h4.9l-2.4-15.3h-0.1
		L241.3,70.1z"/>
	<path class="st1" d="M257.4,83.3V47.7h6.1V78h9.6v5.3H257.4z"/>
	<path class="st1" d="M276.6,83.3V47.7h6.1V78h9.6v5.3H276.6z"/>
</g>
<g>
	<path class="st1" d="M26.3,169v19.4h-2.1V169H26.3z"/>
	<path class="st1" d="M29.7,169h1.9v19.4h-1.9V169z"/>
	<path class="st1" d="M34.8,169h1.9v19.4h-1.9V169z"/>
	<path class="st1" d="M48,188.4h-1.8v-1.5c-0.9,0.9-2.3,1.8-3.2,1.8c-1.9,0-3.1-1.1-3.1-3.7v-10.6h1.9v10.3c0,1.6,0.5,2.3,1.5,2.3
		c0.9,0,1.8-0.6,2.7-1.7v-10.9H48V188.4z"/>
	<path class="st1" d="M56.7,178c-0.4-1.2-0.9-2.2-2.4-2.2c-0.9,0-1.6,0.7-1.6,1.7c0,2.8,5.9,3,5.9,7.4c0,2.2-1.6,3.9-3.8,3.9
		c-2.5,0-3.8-1.4-4.5-3.7l1.8-0.4c0.4,1.2,1.1,2.5,2.6,2.5c1,0,2-1,2-2.1c0-3.2-5.9-3.3-5.9-7.4c0-1.8,1.5-3.4,3.6-3.4
		c2.1,0,3.4,1.2,3.9,3.3L56.7,178z"/>
	<path class="st1" d="M59.8,174.5h1.9v-4.7h1.9v4.7h2.6v1.6h-2.6v9.8c0,0.8,0.4,1.4,1.4,1.4c0.4,0,0.9-0.2,1.2-0.3v1.5
		c-0.5,0.2-1,0.3-1.8,0.3c-1.8,0-2.7-0.9-2.7-3v-9.6h-1.9V174.5z"/>
	<path class="st1" d="M68.4,174.5h1.9v1.7h0.1c1.2-1.7,2-2,3.5-2v1.8c-1.5,0-2.6,0.5-3.6,2.5v9.9h-1.9V174.5z"/>
	<path class="st1" d="M75.4,178.3c0.4-2.2,1.7-4.1,4.1-4.1c2.6,0,4,1.5,4,4v7.8c0,1.2,0.1,2.1,0.3,2.5h-2l-0.2-1.2
		c-0.8,0.8-2.1,1.5-3,1.5c-2.2,0-3.6-1.4-3.6-3.6c0-3.4,3.8-5.2,6.6-5.8v-1c0-1.5-0.8-2.5-2-2.5c-1.5,0-2.2,1.5-2.4,2.7L75.4,178.3z
		 M81.6,180.9c-1.8,0.5-4.6,1.8-4.6,4c0,1.3,0.6,2.1,2,2.1c1,0,2-0.7,2.7-1.5V180.9z"/>
	<path class="st1" d="M85.5,174.5h1.9v-4.7h1.9v4.7h2.6v1.6h-2.6v9.8c0,0.8,0.4,1.4,1.4,1.4c0.4,0,0.9-0.2,1.2-0.3v1.5
		c-0.5,0.2-1,0.3-1.8,0.3c-1.8,0-2.7-0.9-2.7-3v-9.6h-1.9V174.5z"/>
	<path class="st1" d="M94.2,169h1.9v2.3h-1.9V169z M94.2,174.5h1.9v14h-1.9V174.5z"/>
	<path class="st1" d="M102.9,174.2c2.9,0,4.3,2.2,4.3,7.3c0,5-1.3,7.3-4.3,7.3c-2.9,0-4.3-2.2-4.3-7.3
		C98.6,176.4,100,174.2,102.9,174.2z M102.9,187.1c1.6,0,2.3-1,2.3-5.6c0-4.6-0.7-5.6-2.3-5.6s-2.3,1-2.3,5.6
		C100.6,186.1,101.3,187.1,102.9,187.1z"/>
	<path class="st1" d="M109.7,174.5h1.8v1.5c0.9-0.9,2.3-1.8,3.2-1.8c1.9,0,3.1,1.1,3.1,3.7v10.6h-1.9v-10.3c0-1.6-0.5-2.3-1.5-2.3
		c-0.9,0-1.8,0.6-2.7,1.7v10.9h-1.9V174.5z"/>
	<path class="st1" d="M138.6,179.1c-0.2,2.3-0.4,3.7-1.3,5.7c0.6,0.8,1.5,1.5,2.4,2.1l-1.1,1.5c-0.7-0.3-1.7-1.1-2.4-1.8
		c-1,1.2-2.5,2.1-4.1,2.1c-3,0-5-1.9-5-4.9c0-2.8,2-4.6,3.2-5.9c-0.5-1.1-1.4-3.4-1.4-5c0-2.8,1.5-4.1,3.4-4.1
		c2.1,0,3.6,1.6,3.6,3.4c0,2.7-1.7,4.2-3.4,5.9c1,2,2.1,3.7,3.5,5.3c0.5-1.4,0.7-2.9,0.9-4.4L138.6,179.1z M132.2,186.9
		c1.1,0,2.1-0.8,2.7-1.6c-1.5-1.8-2.9-4-3.9-5.9c-1,1-2,2.7-2,4.2C128.9,185.6,130,186.9,132.2,186.9z M131.7,176.4
		c1.3-1.5,2.2-2.7,2.2-4.4c0-1-0.7-1.8-1.4-1.8c-1,0-1.7,0.6-1.7,2.5C130.7,174.2,131.3,175.3,131.7,176.4z"/>
	<path class="st1" d="M151.4,169l3.4,14.7h0.1l3.3-14.7h3.3v19.4h-1.9v-17.8h-0.1l-4,17.8h-1.4l-4-17.8H150v17.8H148V169H151.4z"/>
	<path class="st1" d="M168.2,174.2c2.9,0,4.3,2.2,4.3,7.3c0,5-1.3,7.3-4.3,7.3c-2.9,0-4.3-2.2-4.3-7.3
		C164,176.4,165.3,174.2,168.2,174.2z M168.2,187.1c1.6,0,2.3-1,2.3-5.6c0-4.6-0.7-5.6-2.3-5.6c-1.6,0-2.3,1-2.3,5.6
		C165.9,186.1,166.6,187.1,168.2,187.1z"/>
	<path class="st1" d="M173.6,174.5h1.9v-4.7h1.9v4.7h2.6v1.6h-2.6v9.8c0,0.8,0.4,1.4,1.4,1.4c0.4,0,0.9-0.2,1.2-0.3v1.5
		c-0.5,0.2-1,0.3-1.8,0.3c-1.8,0-2.7-0.9-2.7-3v-9.6h-1.9V174.5z"/>
	<path class="st1" d="M182.3,169h1.9v2.3h-1.9V169z M182.3,174.5h1.9v14h-1.9V174.5z"/>
	<path class="st1" d="M191,174.2c2.9,0,4.3,2.2,4.3,7.3c0,5-1.3,7.3-4.3,7.3s-4.3-2.2-4.3-7.3C186.8,176.4,188.1,174.2,191,174.2z
		 M191,187.1c1.6,0,2.3-1,2.3-5.6c0-4.6-0.7-5.6-2.3-5.6c-1.6,0-2.3,1-2.3,5.6C188.7,186.1,189.4,187.1,191,187.1z"/>
	<path class="st1" d="M197.8,174.5h1.8v1.5c0.9-0.9,2.3-1.8,3.2-1.8c1.9,0,3.1,1.1,3.1,3.7v10.6h-1.9v-10.3c0-1.6-0.5-2.3-1.5-2.3
		c-0.9,0-1.8,0.6-2.7,1.7v10.9h-1.9V174.5z"/>
</g>
<rect x="100.2" y="47.7" class="st1" width="8.1" height="5.3"/>
</svg>
